<svg id="Layer_3" enable-background="new 0 0 64 64" height="512" viewBox="0 0 64 64" width="512" xmlns="http://www.w3.org/2000/svg"><g><g><path d="m6 62-3-5h6z" fill="#bf5763"/></g><g><path d="m6 21-3 5h6z" fill="#bf5763"/></g><g><path d="m48 24h8v9h-8z" fill="#d76e31"/></g><g><path d="m58 34.217-19-13.217-19 13.217v27.783h38z" fill="#f19846"/></g><g><path d="m20 34.217v27.783h11.832c10.162-4.222 17.309-14.24 17.309-25.93 0-3.172-.534-6.218-1.504-9.062l-8.637-6.008z" fill="#f5ba5b"/></g><g><path d="m45 62h-12v-10c0-3.314 2.686-6 6-6 3.314 0 6 2.686 6 6z" fill="#bf8859"/></g><g><path d="m44.893 50.887c-.522-2.781-2.96-4.887-5.893-4.887-3.314 0-6 2.686-6 6v9.463c4.913-2.312 9.04-6.001 11.893-10.576z" fill="#e2b88f"/></g><g><path d="m48 36h6v6h-6z" fill="#d76e31"/></g><g><path d="m24 36h6v6h-6z" fill="#d76e31"/></g><g><path d="m57 14c0-1.657-1.343-3-3-3 0-1.657-.895-3-2-3s-2 1.343-2 3c-1.657 0-3 1.343-3 3 0 1.311.846 2.414 2.018 2.822-.004.06-.018.117-.018.178 0 1.657 1.343 3 3 3s3-1.343 3-3c0-.061-.014-.118-.018-.178 1.172-.408 2.018-1.511 2.018-2.822z" fill="#9d958c"/></g><g><path d="m54 11.952c0-1.434-.508-2.749-1.352-3.777-.204-.106-.42-.175-.648-.175-1.105 0-2 1.343-2 3-1.657 0-3 1.343-3 3 0 1.311.846 2.414 2.018 2.822-.004.06-.018.117-.018.178 0 .279.051.545.122.801 2.774-.506 4.878-2.93 4.878-5.849z" fill="#cbc3b6"/></g><g><path d="m1 20h10v2h-10z"/></g><g><path d="m1 61h10v2h-10z"/></g><g><path d="m9 27h-6c-.36 0-.692-.194-.87-.507s-.173-.698.013-1.007l3-5c.361-.603 1.354-.603 1.715 0l3 5c.186.309.19.694.013 1.007s-.511.507-.871.507zm-4.233-2h2.467l-1.234-2.056z"/></g><g><path d="m6 63c-.352 0-.677-.184-.857-.485l-3-5c-.186-.309-.19-.694-.013-1.007s.51-.508.87-.508h6c.36 0 .692.194.87.507s.173.698-.013 1.007l-3 5c-.18.302-.505.486-.857.486zm-1.233-5 1.233 2.056 1.233-2.056z"/></g><g><path d="m5 26h2v31h-2z"/></g><g><path d="m61 1h2v6h-2z"/></g><g><path d="m15 1h2v6h-2z"/></g><g><path d="m16 3h46v2h-46z"/></g><g><path d="m58 63h-38c-.553 0-1-.448-1-1v-27.783h2v26.783h36v-26.783h2v27.783c0 .552-.447 1-1 1z"/></g><g><path d="m61.429 37.821-22.429-15.603-22.429 15.603-1.143-1.642 23-16c.344-.239.799-.239 1.143 0l23 16z"/></g><g><path d="m45 63h-12c-.553 0-1-.448-1-1v-10c0-3.86 3.141-7 7-7s7 3.14 7 7v10c0 .552-.447 1-1 1zm-11-2h10v-9c0-2.757-2.243-5-5-5s-5 2.243-5 5z"/></g><g><path d="m30 43h-6c-.553 0-1-.448-1-1v-6c0-.552.447-1 1-1h6c.553 0 1 .448 1 1v6c0 .552-.447 1-1 1zm-5-2h4v-4h-4z"/></g><g><path d="m54 43h-6c-.553 0-1-.448-1-1v-6c0-.552.447-1 1-1h6c.553 0 1 .448 1 1v6c0 .552-.447 1-1 1zm-5-2h4v-4h-4z"/></g><g><path d="m57 33h-2v-8h-6v2h-2v-3c0-.552.447-1 1-1h8c.553 0 1 .448 1 1z"/></g><g><path d="m52 21c-2.048 0-3.741-1.547-3.973-3.534-1.236-.7-2.027-2.018-2.027-3.466 0-1.886 1.312-3.472 3.071-3.891.297-1.8 1.477-3.109 2.929-3.109s2.632 1.309 2.929 3.109c1.759.419 3.071 2.005 3.071 3.891 0 1.448-.791 2.766-2.027 3.466-.232 1.987-1.925 3.534-3.973 3.534zm0-12c-.408 0-1 .779-1 2 0 .552-.447 1-1 1-1.103 0-2 .897-2 2 0 .842.541 1.597 1.347 1.877.419.146.691.55.67.993-.002.03-.013.138-.017.168 0 1.065.897 1.962 2 1.962s2-.897 2-2c-.007-.018-.014-.073-.017-.129-.021-.443.251-.847.67-.993.806-.281 1.347-1.036 1.347-1.878 0-1.103-.897-2-2-2-.553 0-1-.448-1-1 0-1.221-.592-2-1-2z"/></g></g></svg>