<svg id="Capa_1" enable-background="new 0 0 511.993 511.993" height="512" viewBox="0 0 511.993 511.993" width="512" xmlns="http://www.w3.org/2000/svg"><g><g><path d="m480.011 79.414-400.568 400.567c-8.995 8.995-2.624 24.374 10.096 24.374h400.567c7.885 0 14.278-6.392 14.278-14.278v-400.567c.001-12.72-15.379-19.091-24.373-10.096zm-43.08 349.94c0 4.169-3.379 7.548-7.548 7.548h-193.246c-6.724 0-10.092-8.13-5.337-12.885l193.246-193.246c4.755-4.755 12.885-1.387 12.885 5.337z" fill="#ffc365"/><g><path d="m100.084 497.155 400.568-400.567c1.154-1.154 2.414-2.052 3.733-2.719v-4.359c0-12.72-15.379-19.091-24.374-10.096l-400.568 400.567c-8.995 8.994-2.624 24.374 10.096 24.374h6.625c.523-2.566 1.784-5.064 3.92-7.2z" fill="#ffb640"/></g><path d="m43.879 424.754 380.904-380.905-32.156-32.156c-5.789-5.789-15.175-5.789-20.964 0l-359.94 359.941c-5.789 5.789-5.789 15.175 0 20.964z" fill="#1ca8ff"/><path d="m26.531 390.312 371.449-371.449c.307-.307.629-.588.955-.863l-6.307-6.307c-5.789-5.789-15.175-5.789-20.964 0l-359.941 359.941c-5.789 5.789-5.789 15.175 0 20.964l10.465 10.465c-.575-4.532.862-9.271 4.343-12.751z" fill="#0094fd"/><path d="m436.087 55.153-12.304-12.304-380.904 380.905 12.304 12.304c5.789 5.789 15.175 5.789 20.964 0l359.94-359.941c5.789-5.789 5.789-15.175 0-20.964z" fill="#60b9fe"/></g><g><path d="m441.5 81.559c8.704-8.704 8.704-22.867 0-31.571-5.116-5.115-38.224-38.224-43.46-43.46-8.705-8.705-22.866-8.703-31.571 0-5.974 5.974-49.923 49.923-55.91 55.91 0 0-.002.001-.002.001-9.744 9.744-297.772 297.773-304.029 304.03-8.704 8.704-8.704 22.867 0 31.571 7.099 7.1 24.02 24.02 43.459 43.459 8.706 8.705 22.867 8.704 31.572 0zm-398.513 331.726-25.852-25.852c-2.856-2.855-2.856-7.502 0-10.358l19.592-19.592 6.656 6.656c2.929 2.929 7.678 2.929 10.606 0 2.93-2.929 2.93-7.677.001-10.606l-6.657-6.657 20.408-20.408 6.657 6.657c2.926 2.927 7.675 2.93 10.606 0 2.929-2.929 2.929-7.678-.001-10.607l-6.656-6.656 20.408-20.408 6.656 6.657c2.929 2.929 7.678 2.929 10.606 0 2.93-2.929 2.93-7.677.001-10.606l-6.657-6.657 20.408-20.408 6.656 6.656c2.93 2.929 7.678 2.929 10.607 0s2.929-7.678 0-10.606l-6.657-6.657 20.408-20.408 6.656 6.656c2.929 2.929 7.678 2.929 10.606 0 2.93-2.929 2.93-7.677.001-10.606l-6.657-6.657 20.408-20.408 6.658 6.657c2.926 2.927 7.675 2.93 10.606 0 2.929-2.929 2.929-7.678-.001-10.607l-6.657-6.656 20.409-20.408 6.657 6.657c2.926 2.928 7.675 2.93 10.606 0 2.929-2.929 2.929-7.678-.001-10.606l-6.657-6.656 20.409-20.409 6.656 6.656c2.93 2.929 7.678 2.929 10.607 0s2.929-7.678 0-10.606l-6.657-6.657 20.408-20.408 6.656 6.656c2.929 2.929 7.678 2.929 10.606 0 2.93-2.929 2.93-7.677.001-10.606l-6.657-6.657 20.408-20.408 6.656 6.656c2.93 2.929 7.678 2.929 10.607 0s2.929-7.678 0-10.606l-6.657-6.657 20.409-20.408 6.657 6.657c2.926 2.928 7.675 2.93 10.606 0 2.929-2.929 2.929-7.678-.001-10.606l-6.657-6.657 19.593-19.593c2.855-2.855 7.5-2.856 10.356 0l25.853 25.853zm17.608 17.608-7.001-7.001 370.298-370.298c.435.435 7.115 7.082 7.502 7.556 2.344 2.874 2.177 7.124-.502 9.802l-359.94 359.94c-2.856 2.856-7.502 2.856-10.357.001z"/><path d="m370.356 429.54c-4.143 0-7.5 3.358-7.5 7.5s3.357 7.5 7.5 7.5h59.136c8.298 0 15.048-6.75 15.048-15.048v-193.246c0-13.374-16.22-20.111-25.688-10.641l-193.247 193.247c-9.457 9.458-2.748 25.688 10.641 25.688h99.11c4.143 0 7.5-3.358 7.5-7.5s-3.357-7.5-7.5-7.5l-99.116.035c-.025-.026-.057-.101-.027-.117l193.225-193.275c.037 0 .111.031.103.063l-.048 193.294z"/><path d="m474.816 74.249-25.297 25.297c-.003.003-.006.006-.009.009s-.005.006-.009.01l-38.742 38.741c-.002.003-.005.005-.008.008s-.005.006-.008.009l-38.738 38.739c-.004.004-.009.007-.013.011s-.007.009-.011.013l-297.733 297.73c-13.726 13.728-4.015 37.177 15.4 37.177h400.567c12.008 0 21.777-9.77 21.777-21.778v-144.894c0-4.142-3.357-7.5-7.5-7.5s-7.5 3.358-7.5 7.5v144.894c0 3.737-3.04 6.778-6.777 6.778h-400.567c-6.037 0-9.063-7.3-4.793-11.57l21.13-21.13 9.379 9.379c2.929 2.929 7.678 2.929 10.606 0 2.93-2.929 2.93-7.677.001-10.606l-9.379-9.38 28.152-28.151 9.379 9.379c2.929 2.929 7.678 2.929 10.606 0 2.93-2.929 2.93-7.677.001-10.606l-9.38-9.38 28.152-28.152 9.379 9.379c2.929 2.929 7.678 2.929 10.606 0 2.93-2.929 2.93-7.677.001-10.606l-9.379-9.38 28.152-28.152 9.379 9.379c2.929 2.929 7.678 2.929 10.606 0 2.93-2.929 2.93-7.677.001-10.606l-9.379-9.38 28.152-28.152 9.379 9.379c2.929 2.929 7.678 2.929 10.606 0 2.93-2.929 2.93-7.677.001-10.606l-9.379-9.38 28.152-28.152 9.379 9.379c2.929 2.929 7.678 2.929 10.606 0 2.93-2.929 2.93-7.677.001-10.606l-9.379-9.38 28.152-28.152 9.379 9.379c2.929 2.929 7.678 2.929 10.606 0 2.93-2.929 2.93-7.677.001-10.606l-9.379-9.38 28.152-28.152 9.38 9.379c2.926 2.928 7.675 2.93 10.606 0 2.929-2.929 2.929-7.678-.001-10.606l-9.379-9.379 28.153-28.153 9.38 9.38c2.926 2.928 7.675 2.93 10.606 0 2.929-2.929 2.929-7.678-.001-10.606l-9.379-9.379 28.153-28.153 9.38 9.379c2.926 2.928 7.675 2.93 10.606 0 2.929-2.929 2.929-7.678-.001-10.606l-9.379-9.379 20.003-20.003c4.267-4.267 11.569-1.249 11.569 4.792v220.673c0 4.142 3.357 7.5 7.5 7.5s7.5-3.358 7.5-7.5v-220.672c0-19.402-23.441-29.138-37.177-15.399z"/></g></g></svg>