<?xml version="1.0" encoding="utf-8"?>
<!-- Generator: Adobe Illustrator 23.0.5, SVG Export Plug-In . SVG Version: 6.00 Build 0)  -->
<svg version="1.1" id="Warstwa_1" xmlns="http://www.w3.org/2000/svg" xmlns:xlink="http://www.w3.org/1999/xlink" x="0px" y="0px"
	 viewBox="0 0 126.2 40.6" style="enable-background:new 0 0 126.2 40.6;" xml:space="preserve">
<style type="text/css">
	.st0{fill:#FFFFFF;}
	.st1{fill:#FBB040;}
</style>
<g>
	<g>
		<g>
			<rect x="6" y="13.3" width="7.4" height="11.2"/>
			<path d="M14.7,23.2c-2.5,0-4.9,0-7.4,0c0.3,0.2,0.7,0.4,1,0.6c0-3.3,0-6.6,0-9.9c0-0.5,0-0.9,0-1.4c-1.2,0.7-2.4,1.4-3.6,2.2
				c2.5,0,4.9,0,7.4,0c-0.3-0.2-0.7-0.4-1-0.6c0,3.3,0,6.6,0,9.9c0,0.5,0,0.9,0,1.4c0,1,1.6,0.5,2.1,0.3c0.6-0.2,1.2-0.5,1.7-0.9
				c0.3-0.2,0.8-0.6,0.8-1c0-3.3,0-6.6,0-9.9c0-0.5,0-0.9,0-1.4c0-0.6-0.5-0.6-1-0.6c-2.5,0-4.9,0-7.4,0c-0.8,0-1.7,0.4-2.3,0.8
				c-0.4,0.2-1.3,0.8-1.3,1.3c0,3.3,0,6.6,0,9.9c0,0.5,0,0.9,0,1.4c0,0.6,0.5,0.6,1,0.6c2.5,0,4.9,0,7.4,0c1.1,0,2.5-0.7,3.2-1.5
				c0.2-0.2,0.5-0.6,0.4-0.9C15.5,23.1,14.9,23.2,14.7,23.2z"/>
			<rect x="13.3" y="2" width="7.4" height="11.2"/>
			<path d="M22,11.9c-2.5,0-4.9,0-7.4,0c0.3,0.2,0.7,0.4,1,0.6c0-3.3,0-6.6,0-9.9c0-0.5,0-0.9,0-1.4C14.4,2,13.2,2.7,12,3.4
				c2.5,0,4.9,0,7.4,0c-0.3-0.2-0.7-0.4-1-0.6c0,3.3,0,6.6,0,9.9c0,0.5,0,0.9,0,1.4c0,1,1.6,0.5,2.1,0.3c0.6-0.2,1.2-0.5,1.7-0.9
				c0.3-0.2,0.8-0.6,0.8-1c0-3.3,0-6.6,0-9.9c0-0.5,0-0.9,0-1.4c0-0.6-0.5-0.6-1-0.6c-2.5,0-4.9,0-7.4,0c-0.8,0-1.7,0.4-2.3,0.8
				c-0.4,0.2-1.3,0.8-1.3,1.3c0,3.3,0,6.6,0,9.9c0,0.5,0,0.9,0,1.4c0,0.6,0.5,0.6,1,0.6c2.5,0,4.9,0,7.4,0c1.1,0,2.5-0.7,3.2-1.5
				c0.2-0.2,0.5-0.6,0.4-0.9C22.8,11.9,22.3,11.9,22,11.9z"/>
			<rect x="13.3" y="24.5" width="7.4" height="11.2"/>
			<path d="M22,34.4c-2.5,0-4.9,0-7.4,0c0.3,0.2,0.7,0.4,1,0.6c0-3.3,0-6.6,0-9.9c0-0.5,0-0.9,0-1.4c-1.2,0.7-2.4,1.4-3.6,2.2
				c2.5,0,4.9,0,7.4,0c-0.3-0.2-0.7-0.4-1-0.6c0,3.3,0,6.6,0,9.9c0,0.5,0,0.9,0,1.4c0,1,1.6,0.5,2.1,0.3c0.6-0.2,1.2-0.5,1.7-0.9
				c0.3-0.2,0.8-0.6,0.8-1c0-3.3,0-6.6,0-9.9c0-0.5,0-0.9,0-1.4c0-0.6-0.5-0.6-1-0.6c-2.5,0-4.9,0-7.4,0c-0.8,0-1.7,0.4-2.3,0.8
				c-0.4,0.2-1.3,0.8-1.3,1.3c0,3.3,0,6.6,0,9.9c0,0.5,0,0.9,0,1.4c0,0.6,0.5,0.6,1,0.6c2.5,0,4.9,0,7.4,0c1.1,0,2.5-0.7,3.2-1.5
				c0.2-0.2,0.5-0.6,0.4-0.9C22.8,34.4,22.3,34.4,22,34.4z"/>
		</g>
		<g>
			<g>
				<g>
					<rect x="3" y="16.3" class="st0" width="7.4" height="11.2"/>
					<g>
						<path class="st1" d="M11.7,26.2c-2.5,0-4.9,0-7.4,0c0.3,0.2,0.7,0.4,1,0.6c0-3.3,0-6.6,0-9.9c0-0.5,0-0.9,0-1.4
							c-1.2,0.7-2.4,1.4-3.6,2.2c2.5,0,4.9,0,7.4,0c-0.3-0.2-0.7-0.4-1-0.6c0,3.3,0,6.6,0,9.9c0,0.5,0,0.9,0,1.4
							c0,1,1.6,0.5,2.1,0.3c0.6-0.2,1.2-0.5,1.7-0.9c0.3-0.2,0.8-0.6,0.8-1c0-3.3,0-6.6,0-9.9c0-0.5,0-0.9,0-1.4
							c0-0.6-0.5-0.6-1-0.6c-2.5,0-4.9,0-7.4,0c-0.8,0-1.7,0.4-2.3,0.8c-0.4,0.2-1.3,0.8-1.3,1.3c0,3.3,0,6.6,0,9.9
							c0,0.5,0,0.9,0,1.4c0,0.6,0.5,0.6,1,0.6c2.5,0,4.9,0,7.4,0c1.1,0,2.5-0.7,3.2-1.5c0.2-0.2,0.5-0.6,0.4-0.9
							C12.5,26.1,11.9,26.2,11.7,26.2z"/>
					</g>
				</g>
				<g>
					<rect x="10.3" y="5" class="st0" width="7.4" height="11.2"/>
					<g>
						<path class="st1" d="M19,14.9c-2.5,0-4.9,0-7.4,0c0.3,0.2,0.7,0.4,1,0.6c0-3.3,0-6.6,0-9.9c0-0.5,0-0.9,0-1.4
							C11.4,5,10.2,5.7,9,6.4c2.5,0,4.9,0,7.4,0c-0.3-0.2-0.7-0.4-1-0.6c0,3.3,0,6.6,0,9.9c0,0.5,0,0.9,0,1.4c0,1,1.6,0.5,2.1,0.3
							c0.6-0.2,1.2-0.5,1.7-0.9c0.3-0.2,0.8-0.6,0.8-1c0-3.3,0-6.6,0-9.9c0-0.5,0-0.9,0-1.4c0-0.6-0.5-0.6-1-0.6c-2.5,0-4.9,0-7.4,0
							c-0.8,0-1.7,0.4-2.3,0.8C9,4.7,8.1,5.3,8.1,5.8c0,3.3,0,6.6,0,9.9c0,0.5,0,0.9,0,1.4c0,0.6,0.5,0.6,1,0.6c2.5,0,4.9,0,7.4,0
							c1.1,0,2.5-0.7,3.2-1.5c0.2-0.2,0.5-0.6,0.4-0.9C19.8,14.9,19.3,14.9,19,14.9z"/>
					</g>
				</g>
				<g>
					<rect x="10.3" y="27.5" class="st0" width="7.4" height="11.2"/>
					<g>
						<path class="st1" d="M19,37.4c-2.5,0-4.9,0-7.4,0c0.3,0.2,0.7,0.4,1,0.6c0-3.3,0-6.6,0-9.9c0-0.5,0-0.9,0-1.4
							c-1.2,0.7-2.4,1.4-3.6,2.2c2.5,0,4.9,0,7.4,0c-0.3-0.2-0.7-0.4-1-0.6c0,3.3,0,6.6,0,9.9c0,0.5,0,0.9,0,1.4
							c0,1,1.6,0.5,2.1,0.3c0.6-0.2,1.2-0.5,1.7-0.9c0.3-0.2,0.8-0.6,0.8-1c0-3.3,0-6.6,0-9.9c0-0.5,0-0.9,0-1.4
							c0-0.6-0.5-0.6-1-0.6c-2.5,0-4.9,0-7.4,0c-0.8,0-1.7,0.4-2.3,0.8c-0.4,0.2-1.3,0.8-1.3,1.3c0,3.3,0,6.6,0,9.9
							c0,0.5,0,0.9,0,1.4c0,0.6,0.5,0.6,1,0.6c2.5,0,4.9,0,7.4,0c1.1,0,2.5-0.7,3.2-1.5c0.2-0.2,0.5-0.6,0.4-0.9
							C19.8,37.4,19.3,37.4,19,37.4z"/>
					</g>
				</g>
			</g>
		</g>
	</g>
	<g>
		<path d="M41,16.5l-1.9,1.8c-1.3-1.4-2.8-2.1-4.4-2.1c-1.4,0-2.5,0.5-3.5,1.4c-0.9,0.9-1.4,2.1-1.4,3.5c0,1,0.2,1.8,0.6,2.6
			c0.4,0.7,1,1.3,1.8,1.8c0.8,0.4,1.6,0.6,2.5,0.6c0.8,0,1.5-0.1,2.2-0.4c0.7-0.3,1.4-0.8,2.2-1.6l1.9,1.9c-1.1,1-2.1,1.8-3,2.2
			c-0.9,0.4-2,0.6-3.2,0.6c-2.2,0-4.1-0.7-5.5-2.1s-2.1-3.2-2.1-5.4c0-1.4,0.3-2.7,1-3.8s1.6-2,2.8-2.7s2.5-1,3.9-1
			c1.2,0,2.3,0.3,3.4,0.8C39.2,14.9,40.2,15.6,41,16.5z"/>
		<path d="M50.1,13.6c2,0,3.8,0.7,5.2,2.2s2.2,3.3,2.2,5.4c0,2.1-0.7,3.9-2.2,5.3c-1.4,1.5-3.2,2.2-5.3,2.2c-2.2,0-3.9-0.7-5.4-2.2
			c-1.4-1.5-2.1-3.3-2.1-5.3c0-1.4,0.3-2.6,1-3.8s1.6-2.1,2.7-2.7C47.6,14,48.8,13.6,50.1,13.6z M50.1,16.3c-1.3,0-2.4,0.5-3.4,1.4
			s-1.4,2.1-1.4,3.5c0,1.6,0.6,2.8,1.7,3.8c0.9,0.7,1.9,1.1,3,1.1c1.3,0,2.4-0.5,3.3-1.4s1.4-2.1,1.4-3.5c0-1.4-0.5-2.5-1.4-3.5
			S51.4,16.3,50.1,16.3z"/>
		<path d="M60.2,14h2.6l6.1,9.5V14h2.7v14.4H69l-6.1-9.4v9.4h-2.7V14z"/>
		<path d="M73.5,14h7.9v2.7h-2.6v11.7h-2.8V16.7h-2.5V14z"/>
		<path d="M90.1,13.6c2,0,3.8,0.7,5.2,2.2c1.5,1.5,2.2,3.3,2.2,5.4c0,2.1-0.7,3.9-2.2,5.3c-1.4,1.5-3.2,2.2-5.3,2.2
			c-2.2,0-3.9-0.7-5.4-2.2c-1.4-1.5-2.1-3.3-2.1-5.3c0-1.4,0.3-2.6,1-3.8c0.7-1.2,1.6-2.1,2.7-2.7C87.5,14,88.8,13.6,90.1,13.6z
			 M90.1,16.3c-1.3,0-2.4,0.5-3.4,1.4c-0.9,0.9-1.4,2.1-1.4,3.5c0,1.6,0.6,2.8,1.7,3.8c0.9,0.7,1.9,1.1,3,1.1c1.3,0,2.4-0.5,3.3-1.4
			c0.9-0.9,1.4-2.1,1.4-3.5c0-1.4-0.5-2.5-1.4-3.5C92.5,16.8,91.4,16.3,90.1,16.3z"/>
		<path d="M100.1,14h2.7v9.3c0,0.8,0.1,1.4,0.2,1.7c0.1,0.3,0.4,0.6,0.7,0.8s0.7,0.3,1.2,0.3c0.5,0,0.9-0.1,1.2-0.3
			c0.3-0.2,0.6-0.5,0.7-0.8s0.2-1,0.2-2V14h2.7v8.6c0,1.4-0.1,2.4-0.2,3c-0.2,0.6-0.5,1.1-0.9,1.6c-0.5,0.5-1,0.9-1.6,1.2
			c-0.6,0.3-1.3,0.4-2.1,0.4c-1,0-1.9-0.2-2.7-0.7s-1.3-1.1-1.7-1.8c-0.3-0.7-0.5-1.9-0.5-3.6V14z"/>
		<path d="M113.1,14h2.9c1.6,0,2.7,0.1,3.4,0.4c0.7,0.3,1.2,0.8,1.6,1.4c0.4,0.7,0.6,1.4,0.6,2.3c0,0.9-0.2,1.7-0.7,2.4
			s-1.1,1.1-2,1.4l3.4,6.4h-3l-3.2-6.1h-0.3v6.1h-2.7V14z M115.9,19.6h0.9c0.9,0,1.5-0.1,1.8-0.3c0.3-0.2,0.5-0.6,0.5-1.1
			c0-0.3-0.1-0.6-0.2-0.8s-0.4-0.4-0.7-0.5c-0.3-0.1-0.8-0.2-1.5-0.2h-0.8V19.6z"/>
	</g>
</g>
</svg>
